<svg xmlns="http://www.w3.org/2000/svg" xmlns:xlink="http://www.w3.org/1999/xlink" xml:space="preserve" version="1.1" style="shape-rendering:geometricPrecision;text-rendering:geometricPrecision;image-rendering:optimizeQuality;" viewBox="0 0 847 1058.75" x="0px" y="0px" fill-rule="evenodd" clip-rule="evenodd"><defs><style type="text/css">
   
    .fil0 {fill:none}
    .fil1 {fill:silver}
   
  </style></defs><g><rect class="fil0" width="847" height="847"/><path class="fil1" d="M188 514l119 -163c0,0 -32,-32 -21,-39l117 37c0,0 46,-7 16,-45 0,0 -177,-88 -253,1 8,12 12,25 12,40 0,34 -21,62 -51,73 1,8 11,56 61,96zm226 183l-123 -160c0,0 -40,22 -44,10l68 -102c0,0 5,-46 -38,-28 0,0 -134,146 -70,243 13,-4 28,-4 42,0 33,9 54,38 56,69 8,1 57,4 109,-32zm-251 32c9,-31 41,-49 73,-40 31,9 49,41 40,73 -9,31 -42,49 -73,40 -31,-9 -49,-42 -40,-73zm486 -189l-191 66c0,0 8,45 -4,45l-76 -97c0,0 -41,-20 -39,27 0,0 97,174 209,143 1,-14 5,-27 14,-40 19,-27 52,-39 83,-31 3,-7 22,-52 4,-113zm-49 248c-27,-18 -34,-55 -16,-81 19,-27 56,-34 82,-16 27,19 34,55 16,82 -19,27 -56,34 -82,15zm-26 -521l3 202c0,0 45,7 41,19l-116 40c0,0 -32,34 14,46 0,0 194,-37 201,-152 -13,-5 -24,-14 -33,-26 -20,-27 -21,-62 -3,-89 -6,-6 -43,-37 -107,-40zm221 126c-26,19 -63,14 -83,-12 -19,-26 -14,-63 12,-82 26,-20 63,-15 82,11 20,26 15,63 -11,83zm-503 -141l193 61c0,0 20,-40 30,-33l2 123c0,0 21,41 47,2 0,0 27,-197 -80,-240 -9,11 -21,19 -35,24 -32,10 -66,-1 -85,-26 -7,4 -49,29 -72,89zm-204 29c32,0 58,27 58,59 0,33 -26,59 -58,59 -33,0 -59,-26 -59,-59 0,-32 26,-59 59,-59zm393 -198c11,30 -6,64 -37,74 -31,10 -64,-6 -74,-37 -11,-31 6,-64 37,-75 31,-10 64,7 74,38z"/></g></svg>